<?xml version="1.0" encoding="UTF-8" standalone="no"?>
<!DOCTYPE svg PUBLIC "-//W3C//DTD SVG 1.1//EN" "http://www.w3.org/Graphics/SVG/1.1/DTD/svg11.dtd">
<svg version="1.1" xmlns="http://www.w3.org/2000/svg" xmlns:xlink="http://www.w3.org/1999/xlink" preserveAspectRatio="xMidYMid meet" viewBox="0 0 300 300" width="300" height="300"><defs><path d="M283.97 150C283.97 223.73 223.94 283.6 150 283.6C76.06 283.6 16.03 223.73 16.03 150C16.03 76.27 76.06 16.4 150 16.4C223.94 16.4 283.97 76.27 283.97 150Z" id="a3EyExsrI7"></path><path d="" id="c3qWfY3527"></path><path d="M71.15 187.18C80.78 163.56 86.8 148.8 89.21 142.9C99.18 118.45 134.23 119.74 142.38 144.86C146.76 158.36 143.45 148.17 149.7 167.42C155.65 185.76 180.06 189.28 190.94 173.36C195.53 166.65 207 149.88 225.34 123.05" id="b3QoteweJ3"></path></defs><g><g><g><g><use xlink:href="#a3EyExsrI7" opacity="1" fill-opacity="0" stroke="#000000" stroke-width="29" stroke-opacity="1"></use></g></g><g><g><use xlink:href="#c3qWfY3527" opacity="1" fill-opacity="0" stroke="#2a2a2f" stroke-width="29" stroke-opacity="1"></use></g></g><g><g><use xlink:href="#b3QoteweJ3" opacity="1" fill-opacity="0" stroke="#000000" stroke-width="29" stroke-opacity="1"></use></g></g></g></g></svg>