<?xml version="1.0" encoding="UTF-8" standalone="no"?>
<!DOCTYPE svg PUBLIC "-//W3C//DTD SVG 1.1//EN" "http://www.w3.org/Graphics/SVG/1.1/DTD/svg11.dtd">
<svg version="1.1" xmlns="http://www.w3.org/2000/svg" xmlns:xlink="http://www.w3.org/1999/xlink" preserveAspectRatio="xMidYMid meet" viewBox="0 0 300 300" width="300" height="300"><defs><path d="M151.68 282.84C76.14 282.84 14.81 221.67 14.81 146.35C14.81 71.02 76.14 9.86 151.68 9.86C227.22 9.86 288.54 71.02 288.54 146.35C288.54 221.67 227.22 282.84 151.68 282.84Z" id="a5gtkyfikr"></path><path d="M151.68 241.38C99.08 241.38 56.38 198.79 56.38 146.35C56.38 93.9 99.08 51.31 151.68 51.31C204.27 51.31 246.97 93.9 246.97 146.35C246.97 198.79 204.27 241.38 151.68 241.38Z" id="avIyiKO9p"></path><path d="M151.68 203.48C121 203.48 96.1 178.64 96.1 148.05C96.1 117.46 121 92.62 151.68 92.62C182.35 92.62 207.25 117.46 207.25 148.05C207.25 178.64 182.35 203.48 151.68 203.48Z" id="bl51F81m7"></path></defs><g><g><g><use xlink:href="#a5gtkyfikr" opacity="1" fill="#000000" fill-opacity="0"></use><g><use xlink:href="#a5gtkyfikr" opacity="1" fill-opacity="0" stroke="#000000" stroke-width="17" stroke-opacity="1"></use></g></g><g><use xlink:href="#avIyiKO9p" opacity="1" fill="#000000" fill-opacity="0"></use><g><use xlink:href="#avIyiKO9p" opacity="1" fill-opacity="0" stroke="#000000" stroke-width="17" stroke-opacity="1"></use></g></g><g><use xlink:href="#bl51F81m7" opacity="1" fill="#000000" fill-opacity="1"></use></g></g></g></svg>